<?xml version="1.0" encoding="utf-8"?>
<!-- Generated by IcoMoon.io -->
<!DOCTYPE svg PUBLIC "-//W3C//DTD SVG 1.1//EN" "http://www.w3.org/Graphics/SVG/1.1/DTD/svg11.dtd">
<svg version="1.1" xmlns="http://www.w3.org/2000/svg" xmlns:xlink="http://www.w3.org/1999/xlink" width="12" height="12" viewBox="0 0 12 12">
<path d="M7 9.777v-0.236c0-0.142 0.061-0.28 0.131-0.412-0.325 0.079-0.679 0.124-1.078 0.124-0.37 0-0.705-0.039-1.011-0.108-0.024 0.159-0.087 0.309-0.193 0.444l0.046 0.065c0.088 0.129 0.139 0.266 0.156 0.409 0.295 0.072 0.632 0.113 0.99 0.113 0.385 0 0.719-0.048 1.030-0.13-0.029-0.086-0.070-0.176-0.070-0.269z" fill="#646464"></path>
<path d="M7 8.283v-0.11c0-0.122 0.052-0.241 0.102-0.356-0.317 0.075-0.661 0.118-1.048 0.118-0.37 0-0.705-0.039-1.011-0.108-0.024 0.159-0.087 0.308-0.193 0.444l0.046 0.065c0.088 0.129 0.139 0.267 0.156 0.409 0.295 0.072 0.632 0.113 0.99 0.113 0.385 0 0.719-0.048 1.030-0.13-0.029-0.086-0.070-0.175-0.070-0.269v-0.175z" fill="#646464"></path>
<path d="M3.833 6.289c0-0.109 0.092-0.213 0.164-0.311 0.444 0.327 1.186 0.528 2.043 0.528 0.413 0 0.782-0.047 1.115-0.132-0.096 0.152-0.155 0.313-0.155 0.481v0.175c0 0.094 0.039 0.183 0.065 0.27-0.309 0.081-0.654 0.129-1.036 0.129-0.367 0-0.756-0.043-1.056-0.118-0.104-0.409-0.473-0.743-1.139-0.942v-0.080z" fill="#646464"></path>
<path d="M5.99 6.111c0.383 0 0.74-0.047 1.050-0.129-0.026-0.087-0.040-0.176-0.040-0.27v-0.176c0-0.172 0.077-0.333 0.17-0.481-0.334 0.085-0.702 0.133-1.116 0.133-0.857 0-1.619-0.201-2.062-0.528-0.072 0.097-0.158 0.202-0.158 0.31v0.176c0 0.533 0.994 0.965 2.157 0.965z" fill="#646464"></path>
<path d="M6 4.743c1.163 0 2.167-0.432 2.167-0.965 0-0.119 0-0.167 0-0.175 0-0.1-0.043-0.197-0.105-0.287-0.446 0.313-1.154 0.505-1.991 0.505-0.857 0-1.627-0.201-2.071-0.528-0.072 0.098-0.167 0.202-0.167 0.31v0.175c-0 0.533 1.003 0.965 2.167 0.965z" fill="#646464"></path>
<path d="M6 3.424c1.163 0 2.167-0.432 2.167-0.965 0-0.119 0-0.167 0-0.176 0-0.1-0.043-0.197-0.105-0.287-0.446 0.313-1.154 0.505-1.991 0.505-0.857 0-1.627-0.201-2.071-0.528-0.072 0.097-0.167 0.202-0.167 0.31v0.175c-0 0.533 1.003 0.965 2.167 0.965z" fill="#646464"></path>
<path d="M3.833 0.965c0-0.533 1.004-0.965 2.167-0.965s2.167 0.432 2.167 0.965c0 0.009 0 0.057 0 0.176 0 0.533-1.004 0.965-2.167 0.965s-2.167-0.432-2.167-0.965v-0.176z" fill="#646464"></path>
<path d="M2.5 11.304c-1.163 0-2.167-0.432-2.167-0.965v-0.176c0-0.108 0.101-0.213 0.173-0.31 0.444 0.327 1.19 0.528 2.047 0.528 0.837 0 1.556-0.192 2.002-0.505 0.062 0.091 0.111 0.188 0.111 0.287 0 0.009 0 0.056 0 0.176 0 0.533-1.004 0.965-2.167 0.965z" fill="#646464"></path>
<path d="M0.333 8.845c0-0.109 0.101-0.213 0.173-0.31 0.444 0.327 1.19 0.528 2.047 0.528 0.837 0 1.556-0.192 2.002-0.505 0.062 0.091 0.111 0.187 0.111 0.287 0 0.009 0 0.057 0 0.175 0 0.533-1.004 0.965-2.167 0.965s-2.167-0.432-2.167-0.965v-0.175z" fill="#646464"></path>
<path d="M0.333 7.526c0-0.533 1.004-0.965 2.167-0.965s2.167 0.432 2.167 0.965c0 0.009 0 0.057 0 0.176 0 0.533-1.004 0.965-2.167 0.965s-2.167-0.432-2.167-0.965v-0.176z" fill="#646464"></path>
<path d="M11.667 11.035c0 0.533-0.92 0.965-2.083 0.965s-2.083-0.432-2.083-0.965v-0.175c0-0.109 0.056-0.213 0.128-0.311 0.444 0.327 1.168 0.528 2.025 0.528 0.837 0 1.507-0.192 1.952-0.505 0.062 0.091 0.061 0.188 0.061 0.288 0 0.008 0 0.056 0 0.175z" fill="#646464"></path>
<path d="M11.667 9.717c0 0.533-0.92 0.965-2.083 0.965s-2.083-0.432-2.083-0.965v-0.176c0-0.109 0.056-0.213 0.128-0.31 0.444 0.327 1.168 0.528 2.025 0.528 0.837 0 1.507-0.192 1.952-0.505 0.062 0.091 0.061 0.187 0.061 0.287 0 0.009 0 0.057 0 0.176z" fill="#646464"></path>
<path d="M11.667 8.349c0 0.533-0.92 0.965-2.083 0.965s-2.083-0.432-2.083-0.965v-0.175c0-0.109 0.056-0.213 0.128-0.31 0.444 0.327 1.168 0.528 2.025 0.528 0.837 0 1.507-0.192 1.952-0.505 0.062 0.091 0.061 0.187 0.061 0.287 0 0.009 0 0.056 0 0.176z" fill="#646464"></path>
<path d="M11.667 7.030c0 0.533-0.92 0.965-2.083 0.965s-2.083-0.432-2.083-0.965v-0.175c0-0.109 0.056-0.213 0.128-0.311 0.444 0.327 1.168 0.528 2.025 0.528 0.837 0 1.507-0.192 1.952-0.505 0.062 0.091 0.061 0.187 0.061 0.288 0 0.008 0 0.056 0 0.176z" fill="#646464"></path>
<path d="M11.667 5.712c0 0.533-0.92 0.965-2.083 0.965s-2.083-0.432-2.083-0.965v-0.176c0-0.533 0.92-0.965 2.083-0.965s2.083 0.432 2.083 0.965c0 0.009 0 0.057 0 0.176z" fill="#646464"></path>
</svg>
