<?xml version="1.0" encoding="utf-8"?>
<!-- Generated by IcoMoon.io -->
<!DOCTYPE svg PUBLIC "-//W3C//DTD SVG 1.1//EN" "http://www.w3.org/Graphics/SVG/1.1/DTD/svg11.dtd">
<svg version="1.1" xmlns="http://www.w3.org/2000/svg" xmlns:xlink="http://www.w3.org/1999/xlink" width="12" height="12" viewBox="0 0 12 12">
<path d="M10.592 3.756c0.070 0.103 0.074 0.213 0.074 0.326 0 0.010 0 0.064 0 0.199 0 0.604-1.099 1.094-2.417 1.094-0.536 0-1.035-0.082-1.439-0.219-0.035-0.162-0.109-0.313-0.202-0.449l-0.008-0.011c0.16-0.217 0.218-0.425 0.23-0.58 0.442 0.136 0.965 0.214 1.527 0.214 0.949 0 1.729-0.217 2.234-0.573zM8.358 2.834c-0.971 0-1.838-0.228-2.341-0.599-0.082 0.11-0.183 0.229-0.183 0.352v0.023c0.681 0.329 0.915 0.747 0.979 1.051 0.404 0.136 0.902 0.218 1.438 0.218 1.318 0 2.417-0.49 2.417-1.094 0-0.135 0-0.189 0-0.199 0-0.113-0.005-0.223-0.074-0.326-0.505 0.355-1.285 0.572-2.234 0.572zM8.25 0c-1.318 0-2.417 0.49-2.417 1.094v0.199c0 0.604 1.099 1.094 2.417 1.094s2.417-0.49 2.417-1.094c0-0.135 0-0.189 0-0.199 0-0.604-1.099-1.094-2.417-1.094zM3.75 5.148c1.318 0 2.417-0.49 2.417-1.094 0-0.135 0-0.189 0-0.199 0-0.604-1.099-1.094-2.417-1.094s-2.417 0.49-2.417 1.094v0.199c0 0.604 1.099 1.094 2.417 1.094zM3.75 6.642c1.318 0 2.417-0.49 2.417-1.093 0-0.135 0-0.189 0-0.199 0-0.113-0.005-0.223-0.074-0.325-0.505 0.355-1.285 0.573-2.234 0.573-0.971 0-1.838-0.229-2.341-0.599-0.082 0.11-0.183 0.228-0.183 0.352v0.199c0 0.604 1.099 1.094 2.417 1.094z" fill="#646464"></path>
<path d="M9 5.418v1.582h-3.017l-1.333 1.333h4.351l0 1.585 3-2.251z" fill="#646464"></path>
<path d="M3 7.42l-3 2.243 3 2.257v-1.586h2.976l1.333-1.333h-4.309z" fill="#646464"></path>
</svg>
