<?xml version="1.0" encoding="utf-8"?>
<!-- Generator: Adobe Illustrator 18.1.1, SVG Export Plug-In . SVG Version: 6.00 Build 0)  -->
<!DOCTYPE svg PUBLIC "-//W3C//DTD SVG 1.1//EN" "http://www.w3.org/Graphics/SVG/1.1/DTD/svg11.dtd">
<svg version="1.1" id="Ebene_1" xmlns="http://www.w3.org/2000/svg" xmlns:xlink="http://www.w3.org/1999/xlink" x="0px" y="0px"
	 width="80px" height="75px" viewBox="0 0 80 75" style="enable-background:new 0 0 80 75;" xml:space="preserve">
<g id="UBS_x5F_iMOB_x5F_Start-750x1334.psd" style="display:none;">
	
		<image style="display:inline;overflow:visible;" width="750" height="1334" id="UBS_x5F_iMOB_x5F_Start-750x1334" xlink:href="FB76226FEA0D4515.png"  transform="matrix(1 0 0 1 -561 -1208.3334)">
	</image>
</g>
<rect x="-533" y="0" style="display:none;fill:none;stroke:#773030;stroke-miterlimit:10;" width="80" height="75"/>
<rect x="-445.286" y="0" style="display:none;fill:none;stroke:#773030;stroke-miterlimit:10;" width="80" height="75"/>
<rect x="-357.571" y="0" style="display:none;fill:none;stroke:#773030;stroke-miterlimit:10;" width="80" height="75"/>
<rect x="-269.857" y="0" style="display:none;fill:none;stroke:#773030;stroke-miterlimit:10;" width="80" height="75"/>
<rect x="-182.143" y="0" style="display:none;fill:none;stroke:#773030;stroke-miterlimit:10;" width="80" height="75"/>
<rect x="-94.429" y="0" style="display:none;fill:none;stroke:#773030;stroke-miterlimit:10;" width="80" height="75"/>
<rect x="-6.714" y="0" style="display:none;fill:none;stroke:#773030;stroke-miterlimit:10;" width="80" height="75"/>
<rect x="81" y="0" style="display:none;fill:none;stroke:#773030;stroke-miterlimit:10;" width="80" height="75"/>
<g>
	<g>
		<path style="fill:#222222;" d="M48.358,50.106v4.618c0,0.633-0.514,1.146-1.147,1.146H21.906c-0.633,0-1.147-0.513-1.147-1.146
			V10.792c0-0.633,0.514-1.146,1.147-1.146h21.376c1.169-1.299,2.677-2.379,4.497-3.186c0.093-0.434,0.226-0.852,0.388-1.259h-27.27
			c-2.535,0-4.589,2.052-4.589,4.582v54.839c0,2.53,2.055,4.581,4.589,4.581h27.322c2.536,0,4.59-2.052,4.59-4.581V54.494
			C50.83,53.519,49.246,51.79,48.358,50.106z M34.855,65.768c-1.902,0-3.441-1.539-3.441-3.436s1.54-3.436,3.441-3.436
			s3.441,1.54,3.441,3.436C38.296,64.229,36.756,65.768,34.855,65.768z M59.277,8.194c0-1.652-1.418-2.992-3.171-2.992
			c-1.75,0-3.17,1.34-3.17,2.992h-0.001C52.935,9.848,59.278,9.848,59.277,8.194z M73.285,41.487c0,0,0.024-1.755-3.26-5.044
			c-3.969-3.974-2.977-8.929-2.977-19.494c0-6.456-9.973-6.456-9.973-6.456h-1.409c0,0-9.868,0-9.868,7.055
			c0,9.243,1.122,14.921-2.849,18.895c-3.286,3.288-3.494,5.092-3.494,5.092v1.436c0,0,0,1.387,2.114,1.387h29.602
			c2.114,0,2.114-1.387,2.114-1.387L73.285,41.487L73.285,41.487z M56.085,49.62c1.752,0,3.171-1.386,3.171-3.528h-6.343
			C52.913,48.234,54.333,49.62,56.085,49.62z"/>
	</g>
</g>
</svg>
