<?xml version="1.0" encoding="utf-8"?>
<!-- Generated by IcoMoon.io -->
<!DOCTYPE svg PUBLIC "-//W3C//DTD SVG 1.1//EN" "http://www.w3.org/Graphics/SVG/1.1/DTD/svg11.dtd">
<svg version="1.1" xmlns="http://www.w3.org/2000/svg" xmlns:xlink="http://www.w3.org/1999/xlink" width="12" height="12" viewBox="0 0 12 12">
<path d="M8.5 3.668v-1.502l-3.167 2.67 3.167 2.67v-1.508h2.5l-0-2.33h-2.5zM6.664 9.343c0 0-1.299-1.292-2.073-2.654-0.829-1.458-1.427-3.186-1.427-3.186l1.497-0.671-0.997-2.833-0.866 0.158c0 0-1.255 0.962-1.704 2.16s0.834 3.672 1.569 5.024c1.716 3.149 2.823 4.063 4 4.505 1.333 0.501 2.809-0.378 2.809-0.378l0.524-0.457-2.334-2.502-1 0.834z" fill="#646464"></path>
</svg>
