<?xml version="1.0" encoding="utf-8"?>
<!-- Generator: Adobe Illustrator 18.1.1, SVG Export Plug-In . SVG Version: 6.00 Build 0)  -->
<!DOCTYPE svg PUBLIC "-//W3C//DTD SVG 1.1//EN" "http://www.w3.org/Graphics/SVG/1.1/DTD/svg11.dtd">
<svg version="1.1" id="Ebene_1" xmlns="http://www.w3.org/2000/svg" xmlns:xlink="http://www.w3.org/1999/xlink" x="0px" y="0px"
	 width="80px" height="75px" viewBox="0 0 80 75" style="enable-background:new 0 0 80 75;" xml:space="preserve">
<g id="UBS_x5F_iMOB_x5F_Start-750x1334.psd" style="display:none;">
	
		<image style="display:inline;overflow:visible;" width="750" height="1334" id="UBS_x5F_iMOB_x5F_Start-750x1334" xlink:href="4D9DB8B784942AF7.png"  transform="matrix(1 0 0 1 -123 -1208.3334)">
	</image>
</g>
<rect x="-95" y="0" style="display:none;fill:none;stroke:#773030;stroke-miterlimit:10;" width="80" height="75"/>
<rect x="-7.286" y="0" style="display:none;fill:none;stroke:#773030;stroke-miterlimit:10;" width="80" height="75"/>
<rect x="80.429" y="0" style="display:none;fill:none;stroke:#773030;stroke-miterlimit:10;" width="80" height="75"/>
<rect x="168.143" y="0" style="display:none;fill:none;stroke:#773030;stroke-miterlimit:10;" width="80" height="75"/>
<rect x="255.857" y="0" style="display:none;fill:none;stroke:#773030;stroke-miterlimit:10;" width="80" height="75"/>
<rect x="343.571" y="0" style="display:none;fill:none;stroke:#773030;stroke-miterlimit:10;" width="80" height="75"/>
<rect x="431.286" y="0" style="display:none;fill:none;stroke:#773030;stroke-miterlimit:10;" width="80" height="75"/>
<rect x="519" y="0" style="display:none;fill:none;stroke:#773030;stroke-miterlimit:10;" width="80" height="75"/>
<g>
	<g>
		<path style="fill:#222222;" d="M47.853,30.472h-37.34c-2.006,0-2.872,1.528-2.916,3.057v25.775c0,1.774,1.274,3.156,2.551,3.156
			c4.121,0,38.063,0,38.063,0c1.438,0,2.604-1.172,2.604-2.622V33.072C50.816,31.62,49.291,30.472,47.853,30.472z M15.737,50.467
			h-2.712v-2.673h2.712V50.467z M18.407,44.458h-5.466v-5.269h5.466V44.458z M23.959,50.467h-5.338v-2.673h5.338V50.467z
			 M32.268,50.467h-5.511v-2.673h5.511V50.467z M37.779,50.528H34.98v-2.763h2.798V50.528z M46.845,39.938h-8.223v-5.523h8.223
			V39.938z M69.475,9.305L32.033,9.28c-1.544,0-2.841,1.353-2.841,2.875l-0.008,4.904l32.167,0.012c1.542,0,2.955,2.339,2.955,3.86
			v20.17l6.036,0.019c1.542,0,2.059-1.7,2.059-3.222V12.451C72.402,10.929,71.017,9.305,69.475,9.305z M58.894,19.909H21.17
			c-1.542,0-2.791,1.318-2.791,2.838l-0.001,5.022l32.127,0.053c1.54,0,3.024,1.815,3.024,3.337l-0.037,17.985l6.061-0.003
			c1.54,0,2.05-1.898,2.05-2.755V22.667C61.602,21.146,60.436,19.909,58.894,19.909z"/>
	</g>
</g>
</svg>
