<?xml version="1.0" encoding="utf-8"?>
<!-- Generated by IcoMoon.io -->
<!DOCTYPE svg PUBLIC "-//W3C//DTD SVG 1.1//EN" "http://www.w3.org/Graphics/SVG/1.1/DTD/svg11.dtd">
<svg version="1.1" xmlns="http://www.w3.org/2000/svg" xmlns:xlink="http://www.w3.org/1999/xlink" width="12" height="12" viewBox="0 0 12 12">
<path d="M7.5 5h-7c-0.276 0-0.5 0.224-0.5 0.5v5c0 0.276 0.224 0.5 0.5 0.5h7c0.276 0 0.5-0.224 0.5-0.5v-5c0-0.276-0.224-0.5-0.5-0.5zM1.333 7h1.333v1.333h-1.333v-1.333zM7 9.667h-5.667v-0.667h5.667v0.667zM7 7h-2v-1.333h2v1.333z" fill="#646464"></path>
<path d="M12 2c0-0.552-0.448-1-1-1h-6.5c-0.276 0-0.5 0.224-0.5 0.5v0.5h6.5c0.276 0 0.5 0.224 0.5 0.5v4.5h0.5c0.276 0 0.5-0.224 0.5-0.5v-4.5z" fill="#646464"></path>
<path d="M10 4c0-0.552-0.448-1-1-1h-6.5c-0.276 0-0.5 0.224-0.5 0.5v0.5h6.5c0.276 0 0.5 0.224 0.5 0.5v4.5h0.5c0.276 0 0.5-0.224 0.5-0.5v-4.5z" fill="#646464"></path>
</svg>
