<?xml version="1.0" encoding="utf-8"?>
<!-- Generator: Adobe Illustrator 18.1.1, SVG Export Plug-In . SVG Version: 6.00 Build 0)  -->
<!DOCTYPE svg PUBLIC "-//W3C//DTD SVG 1.1//EN" "http://www.w3.org/Graphics/SVG/1.1/DTD/svg11.dtd">
<svg version="1.1" id="Ebene_1" xmlns="http://www.w3.org/2000/svg" xmlns:xlink="http://www.w3.org/1999/xlink" x="0px" y="0px"
	 width="80px" height="75px" viewBox="0 0 80 75" style="enable-background:new 0 0 80 75;" xml:space="preserve">
<g id="UBS_x5F_iMOB_x5F_Start-750x1334.psd" style="display:none;">
	
		<image style="display:inline;overflow:visible;" width="750" height="1334" id="UBS_x5F_iMOB_x5F_Start-750x1334" xlink:href="AAF69F7784E918B3.png"  transform="matrix(1 0 0 1 -207 -1208.3334)">
	</image>
</g>
<rect x="-179" y="0" style="display:none;fill:none;stroke:#773030;stroke-miterlimit:10;" width="80" height="75"/>
<rect x="-91.286" y="0" style="display:none;fill:none;stroke:#773030;stroke-miterlimit:10;" width="80" height="75"/>
<rect x="-3.571" y="0" style="display:none;fill:none;stroke:#773030;stroke-miterlimit:10;" width="80" height="75"/>
<rect x="84.143" y="0" style="display:none;fill:none;stroke:#773030;stroke-miterlimit:10;" width="80" height="75"/>
<rect x="171.857" y="0" style="display:none;fill:none;stroke:#773030;stroke-miterlimit:10;" width="80" height="75"/>
<rect x="259.571" y="0" style="display:none;fill:none;stroke:#773030;stroke-miterlimit:10;" width="80" height="75"/>
<rect x="347.286" y="0" style="display:none;fill:none;stroke:#773030;stroke-miterlimit:10;" width="80" height="75"/>
<rect x="435" y="0" style="display:none;fill:none;stroke:#773030;stroke-miterlimit:10;" width="80" height="75"/>
<path style="fill:#222222;" d="M42.373,65.533c-7.218,0-13.751-2.964-18.476-7.755l18.476-18.723V12.578
	c14.432,0,26.13,11.853,26.13,26.476C68.504,53.678,56.805,65.533,42.373,65.533z M38.069,5.519v26.477L19.594,13.277
	C24.323,8.486,30.859,5.52,38.069,5.52V5.519z M19.277,56.337c-4.806-4.874-7.781-11.609-7.781-19.046
	c0-7.435,2.975-14.167,7.781-19.041L38.07,37.291L19.277,56.337z"/>
</svg>
