<?xml version="1.0" encoding="utf-8"?>
<!-- Generated by IcoMoon.io -->
<!DOCTYPE svg PUBLIC "-//W3C//DTD SVG 1.1//EN" "http://www.w3.org/Graphics/SVG/1.1/DTD/svg11.dtd">
<svg version="1.1" xmlns="http://www.w3.org/2000/svg" xmlns:xlink="http://www.w3.org/1999/xlink" width="12" height="12" viewBox="0 0 12 12">
<path d="M10.667 5.333h1.333v6.667h-1.333v-6.667z" fill="#646464"></path>
<path d="M0.667 10h1.333v2h-1.333v-2z" fill="#646464"></path>
<path d="M2.667 8.333h1.333v3.667h-1.333v-3.667z" fill="#646464"></path>
<path d="M4.667 8.667h1.333v3.333h-1.333v-3.333z" fill="#646464"></path>
<path d="M6.667 9.333h1.333v2.667h-1.333v-2.667z" fill="#646464"></path>
<path d="M8.667 7h1.333v5h-1.333v-5z" fill="#646464"></path>
<path d="M12 0l-3.771 0.471 0.983 0.983-3.212 3.212-2-2-4 4 1.333 1.333 2.667-2.667 2 2 4.545-4.545 0.983 0.983z" fill="#646464"></path>
</svg>
