<?xml version="1.0" encoding="utf-8"?>
<!-- Generator: Adobe Illustrator 18.1.1, SVG Export Plug-In . SVG Version: 6.00 Build 0)  -->
<!DOCTYPE svg PUBLIC "-//W3C//DTD SVG 1.1//EN" "http://www.w3.org/Graphics/SVG/1.1/DTD/svg11.dtd">
<svg version="1.1" id="Ebene_1" xmlns="http://www.w3.org/2000/svg" xmlns:xlink="http://www.w3.org/1999/xlink" x="0px" y="0px"
	 width="80px" height="75px" viewBox="0 0 80 75" style="enable-background:new 0 0 80 75;" xml:space="preserve">
<g id="UBS_x5F_iMOB_x5F_Start-750x1334.psd" style="display:none;">
	
		<image style="display:inline;overflow:visible;" width="750" height="1334" id="UBS_x5F_iMOB_x5F_Start-750x1334" xlink:href="8B51B2B6E9D9C525.png"  transform="matrix(1 0 0 1 -470 -1208.3334)">
	</image>
</g>
<rect x="-442" y="0" style="display:none;fill:none;stroke:#773030;stroke-miterlimit:10;" width="80" height="75"/>
<rect x="-354.286" y="0" style="display:none;fill:none;stroke:#773030;stroke-miterlimit:10;" width="80" height="75"/>
<rect x="-266.571" y="0" style="display:none;fill:none;stroke:#773030;stroke-miterlimit:10;" width="80" height="75"/>
<rect x="-178.857" y="0" style="display:none;fill:none;stroke:#773030;stroke-miterlimit:10;" width="80" height="75"/>
<rect x="-91.143" y="0" style="display:none;fill:none;stroke:#773030;stroke-miterlimit:10;" width="80" height="75"/>
<rect x="-3.429" y="0" style="display:none;fill:none;stroke:#773030;stroke-miterlimit:10;" width="80" height="75"/>
<rect x="84.286" y="0" style="display:none;fill:none;stroke:#773030;stroke-miterlimit:10;" width="80" height="75"/>
<rect x="172" y="0" style="display:none;fill:none;stroke:#773030;stroke-miterlimit:10;" width="80" height="75"/>
<path style="fill:#222222;" d="M64.849,10.062c0.013-0.022,0.024-0.035,0.032-0.052l-0.3-0.198
	c-6.567-5.925-15.272-9.521-24.787-9.467C19.515,0.459,3.11,17.085,3.22,37.408c0.113,20.319,16.705,36.76,36.986,36.65
	c20.281-0.114,36.688-16.741,36.574-37.058C76.718,26.343,72.121,16.758,64.849,10.062z M72.066,35.955l-11.041,0.062
	c-0.214-7.915-2.351-14.249-5.182-19.214c2.441-1.085,4.316-2.31,5.709-3.417C67.739,19.006,71.723,27.013,72.066,35.955z
	 M40.815,5.053c0.425,0.013,0.846,0.032,1.262,0.056c2.73,1.779,7.217,5.29,10.882,10.961c-3.162,1.139-7.165,1.97-12.071,2.087
	L40.815,5.053z M46.374,5.673c5.158,1.044,9.876,3.337,13.82,6.543c-1.312,0.999-3.033,2.097-5.254,3.072
	C52.227,11.005,49.059,7.852,46.374,5.673z M37.819,5.12c0.335-0.03,0.669-0.039,1.002-0.054l0.073,13.095
	c-4.793-0.078-8.738-0.865-11.881-1.953C30.621,10.458,35.098,6.905,37.819,5.12z M25.033,15.438
	c-2.288-0.977-4.06-2.073-5.396-3.081c3.956-3.26,8.694-5.592,13.903-6.662C30.861,7.893,27.705,11.091,25.033,15.438z
	 M38.905,19.897l0.088,16.241l-17.685,0.099c0.129-7.642,2.132-13.745,4.8-18.495C29.473,18.943,33.695,19.813,38.905,19.897z
	 M39.01,38.13l0.085,15.49c-5.4,0.155-9.734,1.128-13.136,2.425c-2.553-4.644-4.448-10.516-4.64-17.817L39.01,38.13z M39.101,55.348
	l0.078,14c-0.277-0.006-0.563-0.011-0.848-0.023c-2.816-1.805-7.66-5.549-11.478-11.748C30.049,56.388,34.101,55.492,39.101,55.348z
	 M34.077,68.813c-5.549-1.04-10.599-3.518-14.754-7.032c1.308-1.064,3.14-2.297,5.581-3.4
	C27.762,63.114,31.219,66.523,34.077,68.813z M42.345,69.274c-0.393,0.032-0.777,0.056-1.172,0.064l-0.08-14.006
	c5.159,0.071,9.305,0.936,12.563,2.11C49.942,63.659,45.157,67.436,42.345,69.274z M55.625,58.227
	c2.354,1.046,4.138,2.207,5.428,3.228c-4.032,3.521-8.952,6.057-14.379,7.217C49.493,66.355,52.858,62.946,55.625,58.227z
	 M41.087,53.609l-0.086-15.49l17.95-0.099c-0.112,7.312-1.936,13.216-4.424,17.878C51.064,54.627,46.634,53.68,41.087,53.609z
	 M40.986,36.127l-0.089-16.241c5.322-0.121,9.604-1.048,12.993-2.293c2.745,4.735,4.832,10.809,5.046,18.433L40.986,36.127z
	 M18.279,13.537c1.428,1.113,3.36,2.353,5.862,3.438c-2.752,4.978-4.797,11.338-4.921,19.273L7.923,36.312
	C8.162,27.327,12.103,19.232,18.279,13.537z M7.927,38.304L19.23,38.24c0.194,7.592,2.149,13.739,4.798,18.609
	c-2.65,1.216-4.627,2.582-6.019,3.753C12.047,54.973,8.221,47.089,7.927,38.304z M62.352,60.262
	c-1.384-1.128-3.307-2.424-5.872-3.574c2.581-4.892,4.448-11.067,4.558-18.68l11.044-0.062
	C71.883,46.682,68.19,54.567,62.352,60.262z"/>
</svg>
