<?xml version="1.0" encoding="utf-8"?>
<!-- Generated by IcoMoon.io -->
<!DOCTYPE svg PUBLIC "-//W3C//DTD SVG 1.1//EN" "http://www.w3.org/Graphics/SVG/1.1/DTD/svg11.dtd">
<svg version="1.1" xmlns="http://www.w3.org/2000/svg" xmlns:xlink="http://www.w3.org/1999/xlink" width="12" height="12" viewBox="0 0 12 12">
<path d="M9.154 5.003c0.001-0.256 0.002-1.766 0.002-1.839 0-1.747-1.413-3.164-3.155-3.164s-3.155 1.417-3.155 3.164c0 0.081-0.001 1.589-0.001 1.839l-1.844-0.003v7h10v-7l-1.846 0.003zM3.949 3.164c0-1.136 0.918-2.056 2.051-2.056s2.051 0.921 2.051 2.056c0 0.071 0 1.58-0.002 1.836l-4.096 0.003c-0.002-0.256-0.004-1.757-0.004-1.839zM4.833 10.667l0.584-2.062c-0.305-0.186-0.508-0.514-0.508-0.888 0-0.58 0.486-1.050 1.086-1.050s1.086 0.47 1.086 1.050c0 0.397-0.227 0.742-0.563 0.92l0.65 2.030h-2.333z" fill="#646464"></path>
</svg>
