<?xml version="1.0" encoding="utf-8"?>
<!-- Generator: Adobe Illustrator 18.1.1, SVG Export Plug-In . SVG Version: 6.00 Build 0)  -->
<!DOCTYPE svg PUBLIC "-//W3C//DTD SVG 1.1//EN" "http://www.w3.org/Graphics/SVG/1.1/DTD/svg11.dtd">
<svg version="1.1" id="Ebene_1" xmlns="http://www.w3.org/2000/svg" xmlns:xlink="http://www.w3.org/1999/xlink" x="0px" y="0px"
	 width="80px" height="75px" viewBox="0 0 80 75" style="enable-background:new 0 0 80 75;" xml:space="preserve">
<g id="UBS_x5F_iMOB_x5F_Start-750x1334.psd" style="display:none;">
	
		<image style="display:inline;overflow:visible;" width="750" height="1334" id="UBS_x5F_iMOB_x5F_Start-750x1334" xlink:href="8648DEEFD8ACD47E.png"  transform="matrix(1 0 0 1 -642 -1208.3334)">
	</image>
</g>
<rect x="-614" y="0" style="display:none;fill:none;stroke:#773030;stroke-miterlimit:10;" width="80" height="75"/>
<rect x="-526.286" y="0" style="display:none;fill:none;stroke:#773030;stroke-miterlimit:10;" width="80" height="75"/>
<rect x="-438.571" y="0" style="display:none;fill:none;stroke:#773030;stroke-miterlimit:10;" width="80" height="75"/>
<rect x="-350.857" y="0" style="display:none;fill:none;stroke:#773030;stroke-miterlimit:10;" width="80" height="75"/>
<rect x="-263.143" y="0" style="display:none;fill:none;stroke:#773030;stroke-miterlimit:10;" width="80" height="75"/>
<rect x="-175.429" y="0" style="display:none;fill:none;stroke:#773030;stroke-miterlimit:10;" width="80" height="75"/>
<rect x="-87.714" y="0" style="display:none;fill:none;stroke:#773030;stroke-miterlimit:10;" width="80" height="75"/>
<rect y="0" style="display:none;fill:none;stroke:#773030;stroke-miterlimit:10;" width="80" height="75"/>
<path style="fill:#222222;" d="M15.943,35.59c0,0.124-0.113,28.605-0.113,28.605c0.113,6.059,7.253,6.159,7.253,6.159l36.375,0.15
	c0,0,7.364-1.165,7.358-7.848l0.006-27.195c-0.111-6.059-7.506-6.845-7.506-6.845s-0.083-3.711-0.083-10.801
	c0-6.859-3.515-11.32-10.746-11.32H34.639c-6.339,0-11.43,4.804-11.43,11.194v11.27C23.21,28.959,15.943,30.078,15.943,35.59z
	 M44.997,56.062c0,2.015-0.944,4.669-3.535,4.669c-2.011,0-3.766-2.376-3.766-4.399V43.72c0-0.82,0.471-2.953,3.766-2.953
	c2.019,0,3.535,0.66,3.535,2.676V56.062z M52.206,28.717L30.22,28.745V18.163c0-2.113,2.132-4.072,4.25-4.072l13.882-0.156
	c2.116,0,3.853,2.085,3.853,4.201V28.717z"/>
</svg>
