<?xml version="1.0" encoding="utf-8"?>
<!-- Generated by IcoMoon.io -->
<!DOCTYPE svg PUBLIC "-//W3C//DTD SVG 1.1//EN" "http://www.w3.org/Graphics/SVG/1.1/DTD/svg11.dtd">
<svg version="1.1" xmlns="http://www.w3.org/2000/svg" xmlns:xlink="http://www.w3.org/1999/xlink" width="12" height="12" viewBox="0 0 12 12">
<path d="M6 0c-3.314 0-6 2.686-6 6s2.686 6 6 6c3.314 0 6-2.686 6-6s-2.686-6-6-6zM8.176 7.833h-1.843v-1.5h1.994c-0.016 0.526-0.068 1.030-0.152 1.5zM3.672 6.333h1.994v1.5h-1.843c-0.083-0.47-0.136-0.974-0.151-1.5zM3.824 4.167h1.843v1.5h-1.994c0.016-0.526 0.068-1.030 0.151-1.5zM6.333 5.667v-1.5h1.843c0.083 0.47 0.136 0.974 0.151 1.5h-1.994zM6.333 3.333v-2.364c0.699 0.218 1.298 1.11 1.653 2.364h-1.653zM5.667 8.667v2.364c-0.699-0.218-1.297-1.11-1.653-2.364h1.653zM5.667 3.333h-1.653c0.356-1.255 0.954-2.146 1.653-2.364v2.364zM2.923 5.667h-2.006c0.032-0.5 0.145-1 0.327-1.5h1.828c-0.083 0.5-0.135 1-0.149 1.5zM2.923 6.333c0.015 0.5 0.066 1 0.149 1.5h-1.828c-0.182-0.5-0.295-1-0.327-1.5h2.006zM6.333 8.667h1.653c-0.356 1.254-0.955 2.146-1.653 2.364v-2.364zM9.077 6.333h2.006c-0.033 0.5-0.146 1-0.328 1.5h-1.828c0.083-0.5 0.135-1 0.149-1.5zM9.077 5.667c-0.015-0.5-0.067-1-0.149-1.5h1.828c0.182 0.5 0.295 1 0.328 1.5h-2.006zM8.75 3.333c-0.232-0.886-0.574-1.591-0.995-2.128 1.087 0.398 2 1.155 2.597 2.128h-1.602zM3.25 3.333h-1.603c0.597-0.973 1.51-1.73 2.597-2.128-0.421 0.537-0.763 1.242-0.995 2.128zM3.25 8.667c0.232 0.886 0.574 1.591 0.995 2.128-1.087-0.398-2-1.155-2.597-2.128h1.603zM8.75 8.667h1.602c-0.597 0.972-1.51 1.73-2.597 2.128 0.421-0.537 0.763-1.242 0.995-2.128z" fill="#646464"></path>
</svg>
