<?xml version="1.0" encoding="utf-8"?>
<!-- Generator: Adobe Illustrator 18.1.1, SVG Export Plug-In . SVG Version: 6.00 Build 0)  -->
<!DOCTYPE svg PUBLIC "-//W3C//DTD SVG 1.1//EN" "http://www.w3.org/Graphics/SVG/1.1/DTD/svg11.dtd">
<svg version="1.1" id="Ebene_1" xmlns="http://www.w3.org/2000/svg" xmlns:xlink="http://www.w3.org/1999/xlink" x="0px" y="0px"
	 width="80px" height="75px" viewBox="0 0 80 75" style="enable-background:new 0 0 80 75;" xml:space="preserve">
<g id="UBS_x5F_iMOB_x5F_Start-750x1334.psd" style="display:none;">
	
		<image style="display:inline;overflow:visible;" width="750" height="1334" id="UBS_x5F_iMOB_x5F_Start-750x1334" xlink:href="1524AD513A8D96A3.png"  transform="matrix(1 0 0 1 -28 -1208.3334)">
	</image>
</g>
<rect y="0" style="display:none;fill:none;stroke:#773030;stroke-miterlimit:10;" width="80" height="75"/>
<rect x="87.714" y="0" style="display:none;fill:none;stroke:#773030;stroke-miterlimit:10;" width="80" height="75"/>
<rect x="175.429" y="0" style="display:none;fill:none;stroke:#773030;stroke-miterlimit:10;" width="80" height="75"/>
<rect x="263.143" y="0" style="display:none;fill:none;stroke:#773030;stroke-miterlimit:10;" width="80" height="75"/>
<rect x="350.857" y="0" style="display:none;fill:none;stroke:#773030;stroke-miterlimit:10;" width="80" height="75"/>
<rect x="438.571" y="0" style="display:none;fill:none;stroke:#773030;stroke-miterlimit:10;" width="80" height="75"/>
<rect x="526.286" y="0" style="display:none;fill:none;stroke:#773030;stroke-miterlimit:10;" width="80" height="75"/>
<rect x="614" y="0" style="display:none;fill:none;stroke:#773030;stroke-miterlimit:10;" width="80" height="75"/>
<g>
	<g>
		<path style="fill:#222222;" d="M50.177,56.914c-0.569-0.359-1.06-0.743-1.455-1.152c-1.892,0.421-4.047,0.662-6.38,0.662
			c-1.568,0-3.047-0.109-4.431-0.306c-0.261,1.153-1.165,2.189-2.543,3.054c1.102,0.688,1.897,1.484,2.306,2.369
			c1.419,0.236,2.99,0.376,4.668,0.376c1.936,0,3.722-0.184,5.301-0.496c-0.057-0.247-0.094-0.492-0.094-0.743
			C47.549,59.243,48.519,57.952,50.177,56.914z M50.177,49.382c-0.569-0.354-1.06-0.741-1.455-1.153
			c-1.892,0.428-4.047,0.668-6.38,0.668c-1.568,0-3.047-0.111-4.431-0.312c-0.261,1.158-1.165,2.19-2.543,3.053
			c1.102,0.688,1.897,1.49,2.306,2.372c1.419,0.238,2.99,0.376,4.668,0.376c1.936,0,3.722-0.186,5.301-0.498
			c-0.061-0.239-0.094-0.485-0.094-0.743C47.549,51.711,48.519,50.42,50.177,49.382z M48.725,40.698
			c-1.893,0.428-4.046,0.667-6.383,0.667c-3.491,0-6.6-0.523-8.987-1.425c-1.571,0.682-2.576,1.506-2.804,2.316
			c3.634,0.824,6.253,2.342,7.125,4.226c1.417,0.236,2.988,0.373,4.667,0.373c1.936,0,3.722-0.187,5.301-0.491
			c-0.061-0.247-0.094-0.492-0.094-0.743c0-1.437,0.97-2.731,2.628-3.769C49.608,41.496,49.121,41.114,48.725,40.698z
			 M42.342,39.328c1.936,0,3.722-0.184,5.301-0.498c-0.057-0.24-0.094-0.49-0.094-0.741c0-2.06,1.975-3.824,5.15-4.96
			c-0.388-0.251-0.854-0.49-1.371-0.716c-2.39,0.891-5.496,1.42-8.987,1.42c-3.491,0-6.6-0.529-8.985-1.42
			c-1.796,0.776-2.861,1.743-2.861,2.661C30.495,37.083,35.56,39.328,42.342,39.328z M70.412,65.546
			c-2.385,0.894-5.498,1.425-8.985,1.425c-3.489,0-6.598-0.531-8.985-1.425c-1.796,0.78-2.861,1.748-2.861,2.664
			c0,2.004,5.066,4.248,11.846,4.248c6.781,0,11.846-2.244,11.846-4.248C73.273,67.293,72.21,66.325,70.412,65.546z M70.412,58.017
			c-2.385,0.896-5.494,1.422-8.985,1.422c-3.49,0-6.598-0.526-8.985-1.422c-1.796,0.776-2.861,1.744-2.861,2.661
			c0,2.012,5.066,4.254,11.846,4.254c6.781,0,11.846-2.242,11.846-4.254C73.273,59.761,72.21,58.793,70.412,58.017z M70.412,50.487
			c-2.385,0.894-5.498,1.425-8.985,1.425c-3.49,0-6.598-0.531-8.985-1.425c-1.796,0.78-2.861,1.742-2.861,2.659
			c0,2.012,5.066,4.255,11.846,4.255c6.781,0,11.846-2.244,11.846-4.255C73.273,52.229,72.21,51.266,70.412,50.487z M70.412,42.954
			c-2.385,0.896-5.498,1.427-8.985,1.427c-3.489,0-6.598-0.531-8.985-1.427c-1.796,0.782-2.861,1.748-2.861,2.667
			c0,2.01,5.066,4.254,11.846,4.254c6.781,0,11.846-2.244,11.846-4.254C73.273,44.702,72.21,43.736,70.412,42.954z M49.581,38.089
			c0,2.004,5.066,4.255,11.846,4.255c6.781,0,11.846-2.251,11.846-4.255c0-2.01-5.065-4.256-11.846-4.256
			C54.646,33.833,49.581,36.078,49.581,38.089z M42.342,31.795c6.781,0,11.846-2.244,11.846-4.248c0-0.918-1.065-1.885-2.861-2.666
			c-2.388,0.896-5.496,1.422-8.985,1.422c-3.489,0-6.6-0.526-8.985-1.422c-1.796,0.782-2.861,1.748-2.861,2.666
			C30.495,29.551,35.56,31.795,42.342,31.795z M42.342,24.265c6.781,0,11.846-2.244,11.846-4.25c0-0.918-1.065-1.884-2.859-2.664
			c-2.387,0.901-5.496,1.425-8.987,1.425c-3.491,0-6.604-0.524-8.987-1.425c-1.798,0.78-2.859,1.746-2.859,2.664
			C30.495,22.021,35.56,24.265,42.342,24.265z M42.342,16.738c6.781,0,11.846-2.246,11.846-4.254c0-2.012-5.065-4.256-11.846-4.256
			c-6.782,0-11.846,2.244-11.846,4.256C30.495,14.492,35.56,16.738,42.342,16.738z M33.103,60.274
			c-2.386,0.896-5.496,1.419-8.987,1.419c-3.489,0-6.595-0.523-8.983-1.419c-1.792,0.782-2.861,1.742-2.861,2.661
			c0,2.008,5.065,4.254,11.845,4.254c6.782,0,11.846-2.246,11.846-4.254C35.962,62.016,34.899,61.056,33.103,60.274z M24.116,59.656
			c6.782,0,11.846-2.244,11.846-4.25c0-0.917-1.063-1.882-2.86-2.664c-2.386,0.896-5.496,1.425-8.987,1.425
			c-3.489,0-6.595-0.529-8.983-1.425c-1.792,0.782-2.861,1.748-2.861,2.664C12.271,57.412,17.337,59.656,24.116,59.656z
			 M24.116,52.129c6.782,0,11.846-2.25,11.846-4.259c0-2.005-5.064-4.248-11.846-4.248c-6.779,0-11.845,2.244-11.845,4.248
			C12.271,49.88,17.337,52.129,24.116,52.129z"/>
	</g>
</g>
</svg>
