<?xml version="1.0" encoding="utf-8"?>
<!-- Generated by IcoMoon.io -->
<!DOCTYPE svg PUBLIC "-//W3C//DTD SVG 1.1//EN" "http://www.w3.org/Graphics/SVG/1.1/DTD/svg11.dtd">
<svg version="1.1" xmlns="http://www.w3.org/2000/svg" xmlns:xlink="http://www.w3.org/1999/xlink" width="12" height="12" viewBox="0 0 12 12">
<path d="M6.67 4.998h4.004v-0.333h-4.004v0.333zM10.002 5.331h-3.331v0.333h3.331v-0.333zM10.667 3.333h-4.004v0.333h4.004v-0.333zM1.333 1.333v1.333h-1.333v6.333c0 0.634 0.298 0.975 0.954 0.998l0.046 0.002c0 0 0.122 0.002 0.167 0h9.167c1.167 0 1.667-0.667 1.667-1.833s0-6.833 0-6.833h-10.667zM1.333 8.833c0 0.392-0.101 0.5-0.333 0.5s-0.333-0.13-0.333-0.5c0-0.326 0-5.499 0-5.499h0.667c0 2.055 0 5.499 0 5.499zM11.333 8.166c0 0.833-0.167 1.167-1 1.167 0 0-7.167 0-8.376 0 0.026-0.108 0.043-0.302 0.043-0.446v-6.886h9.333c0 0 0 5.499 0 6.166zM9.167 7.331h1.5v-0.333h-1.5v0.333zM8.667 6.998h-5.667v0.333h5.667v-0.333zM9.994 3.998h-3.331v0.333h3.331v-0.333zM6 3.333h-3v2.667h3v-2.667zM10.667 7.667h-7.667v0.333h7.667v-0.333z" fill="#646464"></path>
</svg>
