<?xml version="1.0" encoding="utf-8"?>
<!-- Generator: Adobe Illustrator 18.1.1, SVG Export Plug-In . SVG Version: 6.00 Build 0)  -->
<!DOCTYPE svg PUBLIC "-//W3C//DTD SVG 1.1//EN" "http://www.w3.org/Graphics/SVG/1.1/DTD/svg11.dtd">
<svg version="1.1" id="Ebene_1" xmlns="http://www.w3.org/2000/svg" xmlns:xlink="http://www.w3.org/1999/xlink" x="0px" y="0px"
	 width="80px" height="75px" viewBox="0 0 80 75" style="enable-background:new 0 0 80 75;" xml:space="preserve">
<g id="UBS_x5F_iMOB_x5F_Start-750x1334.psd" style="display:none;">
	
		<image style="display:inline;overflow:visible;" width="750" height="1334" id="UBS_x5F_iMOB_x5F_Start-750x1334" xlink:href="7B7D5761F9546653.png"  transform="matrix(1 0 0 1 -376 -1208.3334)">
	</image>
</g>
<rect x="-348" y="0" style="display:none;fill:none;stroke:#773030;stroke-miterlimit:10;" width="80" height="75"/>
<rect x="-260.286" y="0" style="display:none;fill:none;stroke:#773030;stroke-miterlimit:10;" width="80" height="75"/>
<rect x="-172.571" y="0" style="display:none;fill:none;stroke:#773030;stroke-miterlimit:10;" width="80" height="75"/>
<rect x="-84.857" y="0" style="display:none;fill:none;stroke:#773030;stroke-miterlimit:10;" width="80" height="75"/>
<rect x="2.857" y="0" style="display:none;fill:none;stroke:#773030;stroke-miterlimit:10;" width="80" height="75"/>
<rect x="90.571" y="0" style="display:none;fill:none;stroke:#773030;stroke-miterlimit:10;" width="80" height="75"/>
<rect x="178.286" y="0" style="display:none;fill:none;stroke:#773030;stroke-miterlimit:10;" width="80" height="75"/>
<rect x="266" y="0" style="display:none;fill:none;stroke:#773030;stroke-miterlimit:10;" width="80" height="75"/>
<path style="fill-rule:evenodd;clip-rule:evenodd;fill:#222222;" d="M65.821,65.04V31.62h6.591v33.42H65.821z M48.093,36.244
	l0.093,0.091l-7.175,6.973L29.92,32.542l-15.15,14.717l-7.181-6.976l20.492-19.897l0.054,0.045l1.835-1.785L40.916,29.27
	l17.131-16.638l-6.879-6.62h21.216v20.433l-7.265-6.73L48.093,36.244z M16.776,64.998h-6.542V54.643h6.542V64.998z M27.448,65.04
	h-6.58V47.089h6.58V65.04z M39.295,65.04H32.71V48.394h6.585V65.04z M50.443,64.998h-7.095V50.877h7.095V64.998z M61.778,64.998
	h-6.821V39.36h6.821V64.998z"/>
</svg>
