<?xml version="1.0" encoding="utf-8"?>
<!-- Generator: Adobe Illustrator 18.1.1, SVG Export Plug-In . SVG Version: 6.00 Build 0)  -->
<!DOCTYPE svg PUBLIC "-//W3C//DTD SVG 1.1//EN" "http://www.w3.org/Graphics/SVG/1.1/DTD/svg11.dtd">
<svg version="1.1" id="Ebene_1" xmlns="http://www.w3.org/2000/svg" xmlns:xlink="http://www.w3.org/1999/xlink" x="0px" y="0px"
	 width="80px" height="75px" viewBox="0 0 80 75" style="enable-background:new 0 0 80 75;" xml:space="preserve">
<g id="UBS_x5F_iMOB_x5F_Start-750x1334.psd" style="display:none;">
	
		<image style="display:inline;overflow:visible;" width="750" height="1334" id="UBS_x5F_iMOB_x5F_Start-750x1334" xlink:href="4D6CEF92898FDE98.png"  transform="matrix(1 0 0 1 -290 -1208.3334)">
	</image>
</g>
<rect x="-262" y="0" style="display:none;fill:none;stroke:#773030;stroke-miterlimit:10;" width="80" height="75"/>
<rect x="-174.286" y="0" style="display:none;fill:none;stroke:#773030;stroke-miterlimit:10;" width="80" height="75"/>
<rect x="-86.571" y="0" style="display:none;fill:none;stroke:#773030;stroke-miterlimit:10;" width="80" height="75"/>
<rect x="1.143" y="0" style="display:none;fill:none;stroke:#773030;stroke-miterlimit:10;" width="80" height="75"/>
<rect x="88.857" y="0" style="display:none;fill:none;stroke:#773030;stroke-miterlimit:10;" width="80" height="75"/>
<rect x="176.571" y="0" style="display:none;fill:none;stroke:#773030;stroke-miterlimit:10;" width="80" height="75"/>
<rect x="264.286" y="0" style="display:none;fill:none;stroke:#773030;stroke-miterlimit:10;" width="80" height="75"/>
<rect x="352" y="0" style="display:none;fill:none;stroke:#773030;stroke-miterlimit:10;" width="80" height="75"/>
<g>
	<g>
		<path style="fill:#222222;" d="M72.044,48.845L58.76,37.201l-0.051,8.924l-18.94,0.04l-5.103,5.358l24.099-0.017l-0.05,9.039
			L72.044,48.845z M63.09,17.051c-2.944,1.005-6.781,1.239-11.09,1.239c-4.308,0-10.325-0.566-12.189-1.814
			c-1.15,0.094-1.345,0.716-2.02,1.547c3.08,0.072,8.79,2.771,8.79,5.096c0,0.284-0.044,0.749-0.116,1.02
			c1.949,0.352,3.149,0.653,5.535,0.653c8.372,0,14.621-2.832,14.621-5.102C66.621,18.654,65.305,17.927,63.09,17.051z
			 M29.262,39.222c8.328,0,14.553-2.257,14.553-4.728c0-1.127-1.31-2.314-3.516-3.273c-2.931,1.099-6.751,1.752-11.037,1.752
			c-4.285,0-8.109-0.653-11.039-1.752c-2.21,0.959-3.515,2.146-3.515,3.273C14.709,36.965,20.932,39.222,29.262,39.222z
			 M29.262,29.984c8.328,0,14.553-2.764,14.553-5.227c0-2.469-6.225-5.226-14.553-5.226c-8.33,0-14.553,2.757-14.553,5.226
			C14.709,27.22,20.932,29.984,29.262,29.984z M52,15.429c8.372,0,14.621-2.77,14.621-5.251c0-2.478-6.249-5.25-14.621-5.25
			c-8.367,0-14.619,2.771-14.619,5.25C37.381,12.659,43.633,15.429,52,15.429z M21.365,45.654L7.956,56.879L21.321,68.58
			l0.051-9.063h19.017l5.101-5.342l-24.175,0.017L21.365,45.654z M52.44,34.104c8.092,0,14.137-2.679,14.137-5.072
			c0-1.093-1.268-2.248-3.413-3.179c-2.847,1.069-6.56,1.7-10.724,1.7c-3.099,0-5.259,0.015-6.841-0.461
			c-0.696,1.385-1.86,2.063-1.86,2.063s3.448,1.687,2.9,4.462C48.642,34.048,49.917,34.104,52.44,34.104z"/>
	</g>
</g>
</svg>
