<?xml version="1.0" encoding="UTF-8" standalone="no"?>
<!-- Created with Inkscape (http://www.inkscape.org/) -->
<svg
   xmlns:dc="http://purl.org/dc/elements/1.1/"
   xmlns:cc="http://web.resource.org/cc/"
   xmlns:rdf="http://www.w3.org/1999/02/22-rdf-syntax-ns#"
   xmlns:svg="http://www.w3.org/2000/svg"
   xmlns="http://www.w3.org/2000/svg"
   xmlns:sodipodi="http://sodipodi.sourceforge.net/DTD/sodipodi-0.dtd"
   xmlns:inkscape="http://www.inkscape.org/namespaces/inkscape"
   width="535.39502"
   height="205.86685"
   id="svg2"
   sodipodi:version="0.32"
   inkscape:version="0.45.1"
   version="1.0"
   sodipodi:docbase="C:\Dokumente und Einstellungen\Petar\Desktop"
   sodipodi:docname="UBS_Logo_SVG.svg"
   inkscape:output_extension="org.inkscape.output.svg.inkscape">
  <defs
     id="defs4" />
  <sodipodi:namedview
     id="base"
     pagecolor="#ffffff"
     bordercolor="#666666"
     borderopacity="1.0"
     inkscape:pageopacity="0.0"
     inkscape:pageshadow="2"
     inkscape:zoom="0.86180109"
     inkscape:cx="680.23936"
     inkscape:cy="43.239708"
     inkscape:document-units="px"
     inkscape:current-layer="g2189"
     showguides="true"
     inkscape:guide-bbox="true"
     width="836px"
     height="342px"
     inkscape:window-width="1280"
     inkscape:window-height="968"
     inkscape:window-x="-4"
     inkscape:window-y="-4">
    <sodipodi:guide
       orientation="vertical"
       position="127.51139"
       id="guide2215" />
    <sodipodi:guide
       orientation="horizontal"
       position="375.05935"
       id="guide2217" />
  </sodipodi:namedview>
  <metadata
     id="metadata7">
    <rdf:RDF>
      <cc:Work
         rdf:about="">
        <dc:format>image/svg+xml</dc:format>
        <dc:type
           rdf:resource="http://purl.org/dc/dcmitype/StillImage" />
      </cc:Work>
    </rdf:RDF>
  </metadata>
  <g
     inkscape:label="Ebene 1"
     inkscape:groupmode="layer"
     id="layer1"
     transform="translate(-127.51139,-471.43599)">
    <g
       id="g2189"
       transform="translate(-4.0436036,37.50739)">
      <path
         style="fill:#fc0101"
         d="M 617.08665,602.33629 C 609.04518,601.74169 600.36905,599.72032 593.48428,596.83743 C 591.92597,596.18491 590.82377,590.25476 590.04009,589.95687 L 588.42869,582.01698 C 588.21933,574.94239 587.953,567.12696 587.83684,564.64936 L 587.62565,560.14463 L 590.51029,560.14463 L 593.39492,560.14463 L 594.12842,565.68601 C 596.86835,586.38552 607.80107,596.80384 626.78272,596.80384 C 639.38889,596.80384 647.20407,592.07544 651.13997,582.06703 C 652.36796,578.94443 652.55665,577.33478 652.58172,569.76773 C 652.61024,561.15559 652.58856,561.01621 650.58024,556.90758 C 647.05564,549.69693 643.493,547.30611 625.73933,540.23732 C 620.47319,538.14056 614.21867,535.4444 611.84042,534.24586 C 596.33624,526.43238 588.65512,515.34745 588.68629,500.83121 C 588.72616,482.26032 599.06496,468.85628 617.09112,464.00496 C 623.3661,462.31619 638.65453,462.50048 645.19781,464.34377 C 651.33317,466.07215 659.44501,469.2854 660.30541,470.32819 C 660.67286,470.77353 661.09309,476.02975 661.2818,482.54084 C 661.46402,488.82778 661.71514,495.43957 661.83985,497.23369 L 662.06661,500.49574 L 659.14456,500.49574 L 656.22251,500.49574 L 654.93963,493.95304 C 651.95233,478.71777 644.93877,470.68749 632.86167,468.67454 C 623.08572,467.04514 611.23862,470.81826 606.57358,477.0469 C 603.02735,481.78172 601.95675,485.4903 601.95675,493.03963 C 601.95675,499.04168 602.1035,499.85505 603.79072,503.20445 C 605.9826,507.55568 609.09751,510.40147 614.92906,513.38047 C 619.01428,515.46736 632.80943,521.00005 633.92767,521.00005 C 635.01394,521.00005 647.40648,527.17817 650.60881,529.31619 C 659.51817,535.26447 664.47989,543.24615 666.24786,554.47396 C 667.11199,559.96174 667.15141,561.79151 666.51509,566.87649 C 665.07331,578.39788 661.71527,585.5359 654.6274,592.14552 C 645.54181,600.61808 634.47565,603.62209 617.08665,602.33629 z M 397.87467,601.49694 C 378.2104,597.7301 368.91233,587.37936 366.32402,566.37435 C 365.92433,563.13065 365.67524,543.62928 365.67524,515.5796 L 365.67524,470.04996 L 358.26249,470.04996 L 350.84974,470.04996 L 350.84974,467.25392 L 350.84974,464.45788 L 375.25005,464.45788 L 399.65036,464.45788 L 399.65036,467.23535 L 399.65036,470.01283 L 391.77431,470.18673 L 383.89826,470.36063 L 383.71757,510.7479 C 383.48247,563.29954 384.07619,571.76303 388.65405,581.11636 C 393.17033,590.34389 401.89591,594.93981 414.89855,594.93981 C 429.64556,594.93981 437.86597,589.4261 442.3003,576.56055 C 445.13682,568.33079 445.35482,563.98293 445.35869,515.5633 L 445.36234,470.04996 L 437.94958,470.04996 L 430.53683,470.04996 L 430.53683,467.25392 L 430.53683,464.45788 L 448.45098,464.45788 L 466.36514,464.45788 L 466.36514,467.25392 L 466.36514,470.04996 L 459.59446,470.04996 L 452.82379,470.04996 L 452.6308,519.60203 C 452.43984,568.63193 452.42331,569.20647 451.06258,574.12483 C 447.04253,588.65538 439.09491,596.79606 425.28613,600.52747 C 418.83589,602.27045 404.55022,602.7757 397.87467,601.49694 z M 474.51304,597.92182 L 474.70448,595.25048 L 482.11724,595.15186 L 489.52999,595.05325 L 489.68738,532.57075 L 489.84476,470.08826 L 482.27462,469.91377 L 474.70448,469.73929 L 474.51453,467.09858 L 474.32458,464.45788 L 504.66495,464.45788 C 523.85227,464.45788 536.63834,464.71184 539.44775,465.14875 C 550.17518,466.81706 557.5011,471.55415 561.44111,479.3701 C 564.83838,486.1094 565.88441,494.55098 564.29921,502.43538 C 562.59878,510.89295 559.09161,516.10632 552.06102,520.62727 C 547.30915,523.68292 544.24771,524.94806 538.33062,526.30135 C 535.61261,526.92299 533.15933,527.62729 532.87889,527.86647 C 532.59845,528.10566 534.26632,528.49417 536.58526,528.72984 C 560.44739,531.15487 570.89917,541.66989 570.89917,563.25134 C 570.89917,575.13323 568.09434,582.72663 561.14012,589.67171 C 556.87711,593.92909 551.70292,596.7563 544.41028,598.81294 C 539.74913,600.12746 538.33331,600.18692 506.94384,600.38612 L 474.32161,600.59315 L 474.51304,597.92182 z M 530.79846,594.01297 C 541.34295,591.25041 548.39642,583.94114 550.73925,573.34901 C 552.21282,566.68683 551.70966,554.47417 549.74725,549.27113 C 547.36108,542.9446 543.33745,537.87965 538.43316,535.02896 C 533.53054,532.17924 529.97714,531.56287 518.45116,531.56287 L 507.75301,531.56287 L 507.75301,563.25134 L 507.75301,594.93981 L 517.50689,594.93981 C 524.1599,594.93981 528.38546,594.64515 530.79846,594.01297 z M 530.76376,524.49798 C 540.97893,521.17947 546.93651,510.97818 546.83341,496.98162 C 546.72587,482.3841 539.34768,471.87978 528.03787,470.22247 C 526.22435,469.95672 520.91837,469.82432 516.24679,469.92825 L 507.75301,470.11721 L 507.75301,497.62977 C 507.75301,512.76168 507.96149,525.35973 508.21631,525.62545 C 509.02137,526.46496 527.56294,525.5378 530.76376,524.49798 z "
         id="path2195"
         sodipodi:nodetypes="cccccccccssssssssssscccccssssssssssccscccccccccccccssscccccccccccccssccccccccccccssssssssssccccssscccccccsscccsc" />
      <path
         style="fill:#010101"
         d="M 221.89795,639.20582 C 219.95283,638.64091 219.89033,638.51844 219.89033,635.2725 C 219.89033,631.98727 219.85137,631.91466 217.88271,631.53078 C 214.2097,630.81457 207.88143,627.90723 204.92487,625.5777 C 194.03579,616.99793 190.30387,603.57949 195.20716,590.63683 C 198.34223,582.36151 206.99212,574.9629 216.34737,572.55472 C 220.8672,571.39125 220.65269,570.08973 215.87509,569.68926 L 212.16871,569.37859 L 212.16871,566.27188 L 212.16871,563.16517 L 216.02952,562.98018 L 219.89033,562.7952 L 219.89033,546.98061 C 219.89033,538.28259 219.76086,531.16603 219.60261,531.16603 C 219.44437,531.16603 214.78557,534.87078 209.24972,539.39882 C 203.71387,543.92685 198.42277,548.23105 197.49171,548.96371 C 196.56065,549.69638 195.80301,550.53519 195.80807,550.82774 C 195.81312,551.12029 196.75943,552.47808 197.91098,553.84503 C 199.94312,556.2573 199.97558,556.38013 199.01448,558.02136 C 198.46985,558.95138 197.25849,559.98082 196.32255,560.30901 C 194.7629,560.85588 194.416,560.66285 192.16698,557.9967 C 190.3988,555.90057 189.52289,555.27488 189.03235,555.7575 C 188.53837,556.24351 188.89385,557.59288 190.32794,560.67537 C 192.04169,564.359 192.34168,565.76877 192.58558,571.285 C 192.81719,576.52303 192.63938,578.39784 191.57876,581.90068 C 188.6632,591.52981 181.68269,598.55015 172.10701,601.48354 C 168.6277,602.54939 166.81215,602.72485 161.91448,602.46859 C 155.09838,602.11196 151.16615,600.78697 145.61535,596.97649 C 143.66562,595.63805 141.85876,594.55433 141.60011,594.56822 C 141.34145,594.5821 140.18469,595.4064 139.02952,596.39999 C 137.04219,598.10933 136.83507,598.15754 135.17917,597.29623 C 133.47778,596.41127 131.55505,593.56597 131.55499,591.93312 C 131.55498,591.48897 132.58206,590.25821 133.8374,589.1981 L 136.11984,587.2706 L 134.47353,583.45232 C 127.23954,566.67459 134.60751,548.3523 151.05884,542.2088 C 154.03984,541.09559 155.92467,540.85476 161.20603,540.91224 C 168.84042,540.99536 172.58503,542.16675 178.95847,546.46561 C 184.00057,549.86648 185.24937,549.29822 181.86448,545.14325 C 179.57263,542.32999 179.5365,542.2093 180.50214,540.59307 C 181.04771,539.67993 182.24391,538.65744 183.16036,538.32087 C 184.68394,537.76135 185.04519,537.96051 187.37855,540.64642 L 189.93045,543.58389 L 203.21163,532.74896 C 210.51628,526.78975 216.49282,521.62245 216.49282,521.26608 C 216.49282,520.90972 210.65527,515.88077 203.5205,510.09065 L 190.54818,499.56315 L 188.84942,501.18996 C 186.66718,503.27977 186.70483,504.50439 189.00386,506.21408 C 191.26642,507.89664 191.28138,508.19511 189.22631,510.6517 L 187.59558,512.60105 L 185.64496,510.69937 C 183.31272,508.42565 183.05896,508.39463 181.52527,510.19572 C 179.02167,513.13583 179.0031,513.52818 181.2933,515.0969 C 182.4717,515.90407 183.43775,516.87627 183.44007,517.25736 C 183.44502,518.06922 181.07669,521.22566 180.46524,521.22213 C 179.90365,521.21889 168.35929,511.93754 168.1275,511.30293 C 168.02717,511.02824 170.87644,509.18914 174.45923,507.21605 C 178.04201,505.24296 180.97337,503.41268 180.97337,503.14875 C 180.97337,502.88483 180.17003,502.09352 179.18817,501.39028 L 177.40297,500.11167 L 171.38215,503.54133 C 168.07071,505.42765 165.25969,506.86875 165.13545,506.74378 C 165.0112,506.61882 165.85175,503.53025 167.00332,499.88029 L 169.09709,493.24402 L 167.518,491.99464 C 166.64951,491.30748 165.67458,490.83389 165.3515,490.94222 C 165.02841,491.05054 163.81447,494.19044 162.65384,497.91977 C 161.49322,501.64909 160.43358,504.81104 160.2991,504.94631 C 160.04981,505.19705 147.61598,495.15657 147.61598,494.70453 C 147.61598,494.11033 150.3707,490.77876 150.86202,490.77876 C 151.16054,490.77876 152.38124,491.52789 153.57468,492.4435 L 155.74458,494.10824 L 157.54871,492.16653 C 158.54098,491.09859 159.35284,490.02958 159.35284,489.79096 C 159.35284,489.55234 158.32326,488.46189 157.06488,487.36775 L 154.77692,485.37839 L 156.29272,483.45289 C 158.15066,481.09276 158.40348,481.06748 160.70096,483.01198 C 161.71039,483.86633 162.74698,484.56534 163.00451,484.56534 C 163.60096,484.56534 166.77485,481.00417 166.73767,480.37665 C 166.72231,480.11739 164.37206,478.08784 161.5149,475.86654 C 155.73335,471.37169 155.27825,470.3057 157.83565,467.24863 C 161.04529,463.41188 157.99652,461.41919 194.56342,491.25406 C 214.33055,507.38203 219.19253,511.28307 219.52621,511.28307 C 219.72647,511.28307 219.89033,504.15316 219.89033,495.43883 L 219.89033,479.5946 L 216.80168,479.5946 L 213.71303,479.5946 L 213.71303,482.70131 L 213.71303,485.80802 L 210.93325,485.80802 L 208.15347,485.80802 L 208.15347,482.70131 L 208.15347,479.5946 L 205.06482,479.5946 L 201.97617,479.5946 L 201.97617,482.70131 L 201.97617,485.80802 L 199.19639,485.80802 L 196.41661,485.80802 L 196.41661,477.42897 L 196.41661,469.04991 L 199.35082,470.21431 C 200.96464,470.85473 204.07033,472.10886 206.25235,473.00128 C 208.43437,473.8937 210.44971,474.62386 210.73089,474.62386 C 211.01206,474.62386 211.24035,473.57534 211.23819,472.29382 L 211.23427,469.96379 L 204.3567,467.23215 L 197.47913,464.5005 L 204.36062,461.73083 L 211.24212,458.96116 L 211.24212,456.54036 C 211.24212,455.20892 211.10871,454.11955 210.94567,454.11955 C 210.78262,454.11955 207.79435,455.2686 204.30508,456.67299 C 200.81579,458.07738 197.61346,459.36551 197.18877,459.53551 C 196.59382,459.77366 196.41661,457.90429 196.41661,451.38999 L 196.41661,442.93539 L 199.19639,442.93539 L 201.97617,442.93539 L 201.97617,446.0421 L 201.97617,449.14881 L 205.06482,449.14881 L 208.15347,449.14881 L 208.15347,446.0421 L 208.15347,442.93539 L 210.93325,442.93539 L 213.71303,442.93539 L 213.71303,446.0421 L 213.71303,449.14881 L 216.80168,449.14881 L 219.89033,449.14881 L 219.89033,442.02732 L 219.89033,434.90583 L 222.2707,434.26112 C 223.94923,433.80649 225.22418,433.81735 226.59481,434.29795 L 228.53854,434.9795 L 228.53854,473.19776 C 228.53854,505.51726 228.67068,511.36502 229.39472,511.08555 C 230.15386,510.79254 247.0241,497.18272 276.11743,473.39268 C 281.39112,469.08031 286.04974,465.33829 286.46993,465.07708 C 287.64619,464.34586 289.53854,465.20136 290.83212,467.04916 C 293.40026,470.7176 293.27099,471.05606 287.55607,475.62632 C 284.65478,477.94651 282.281,480.07947 282.281,480.36623 C 282.281,481.16263 284.91138,484.56534 285.52703,484.56534 C 285.82556,484.56534 287.05483,483.80963 288.25875,482.88598 L 290.4477,481.20663 L 292.19874,483.35199 L 293.94979,485.49735 L 291.51603,487.67205 L 289.08226,489.84675 L 291.0132,491.96696 C 292.33524,493.41858 293.18352,493.90841 293.70322,493.52031 C 297.88156,490.40006 297.68199,490.45175 299.27234,492.07771 C 300.07772,492.90111 300.82331,493.89709 300.92921,494.29099 C 301.14046,495.07676 289.11987,505.17024 288.46078,504.76051 C 288.23641,504.62104 287.12733,501.41809 285.99616,497.64284 C 284.86499,493.8676 283.63582,490.78806 283.26467,490.79943 C 282.89353,490.8108 281.94534,491.36046 281.1576,492.02089 L 279.72533,493.22168 L 281.85741,500.07768 C 283.03005,503.84847 283.85517,506.93367 283.69101,506.93367 C 283.52685,506.93367 280.61671,505.36659 277.22402,503.45129 L 271.05551,499.9689 L 269.25975,501.69941 L 267.46399,503.42992 L 271.32055,505.57367 C 273.44166,506.75274 276.52237,508.47939 278.16657,509.41066 L 281.15603,511.1039 L 274.70856,516.39856 L 268.26109,521.69323 L 266.53323,519.51511 L 264.80538,517.33699 L 267.16565,515.34383 L 269.52592,513.35067 L 267.79966,511.07418 C 266.85022,509.82212 265.93791,508.7977 265.77232,508.7977 C 265.60671,508.7977 264.42048,509.63477 263.13624,510.65786 L 260.80124,512.51802 L 259.12669,510.30973 L 257.45214,508.10144 L 259.78602,506.07216 L 262.11989,504.04288 L 260.32331,501.77812 C 258.78744,499.84203 258.37231,499.62348 257.46277,500.27214 C 254.8442,502.13964 231.6935,520.94744 231.66219,521.23273 C 231.64294,521.4081 233.22554,522.80612 235.17907,524.33944 C 237.13261,525.87277 243.25765,530.83206 248.79027,535.36009 C 254.32289,539.88812 258.96178,543.59288 259.09891,543.59288 C 259.23605,543.59288 260.24657,542.33466 261.34453,540.79684 C 263.70649,537.48864 264.99939,537.29876 267.56839,539.8828 L 269.43945,541.7648 L 267.8146,543.76619 C 265.70635,546.36299 264.67181,548.45614 265.22272,549.01028 C 265.46409,549.25305 266.01628,549.18197 266.44983,548.85231 C 270.55682,545.72953 275.53448,542.86956 278.16213,542.12289 C 293.41366,537.78903 307.28006,543.60279 313.94108,557.12392 L 316.56498,562.45014 L 316.56498,570.26376 C 316.56498,578.33585 316.51842,578.54079 312.80769,586.80022 C 312.64822,587.15518 313.63916,588.2736 315.00977,589.28559 C 317.07866,590.81315 317.44071,591.38934 317.14203,592.67894 C 316.75407,594.35402 314.76746,596.77736 312.99406,597.73881 C 312.13499,598.20455 311.34468,597.86218 309.38586,596.1757 L 306.87766,594.01622 L 304.06106,596.17875 C 298.28939,600.61013 292.32377,602.63051 285.08543,602.60523 C 276.52061,602.57531 270.31421,600.03895 264.67571,594.26439 C 260.29433,589.77729 257.95027,585.65836 256.67073,580.19826 C 255.03505,573.21843 255.64777,567.04256 258.65612,560.18658 C 259.82831,557.51518 260.05609,556.40596 259.53922,555.88607 C 259.02236,555.36619 258.53836,555.57354 257.66271,556.68996 C 253.88379,561.508 254.30002,561.24843 252.14813,560.12913 C 251.07429,559.57058 249.88972,558.53851 249.51575,557.83566 C 248.80766,556.50485 248.9608,556.15647 251.98751,552.21259 L 253.24032,550.58015 L 241.51845,541.03221 C 235.07143,535.78084 229.5087,531.38775 229.15684,531.26978 C 228.72402,531.12466 228.57051,536.14771 228.68225,546.79955 L 228.8474,562.54383 L 232.53895,562.73436 C 236.53651,562.94068 237.16783,563.42316 237.16783,566.27188 C 237.16783,569.12061 236.53651,569.60308 232.53895,569.8094 C 227.27401,570.08114 227.65525,571.34614 233.51436,573.04596 C 241.30135,575.30509 246.84695,579.39362 251.25922,586.12848 C 256.5889,594.26366 257.16895,605.949 252.70225,615.19892 C 249.65999,621.49902 241.53976,628.36951 234.82647,630.32352 C 228.37738,632.20064 228.53854,632.06855 228.53854,635.47747 C 228.53854,638.35022 228.41995,638.57831 226.59317,639.21884 C 224.39527,639.98952 224.59829,639.99008 221.89795,639.20582 z M 220.00576,621.28063 C 220.18249,618.74414 220.37248,618.45481 222.20681,617.9287 C 223.4394,617.57516 224.98947,617.57516 226.22205,617.92868 C 228.07576,618.46035 228.25335,618.74114 228.53854,621.59129 C 228.82392,624.44338 228.96482,624.66573 230.39173,624.51571 C 233.39857,624.19958 239.47076,620.65854 242.39109,617.51822 C 246.92496,612.64278 248.55584,608.46493 248.57047,601.6884 C 248.57711,598.61276 248.21842,595.0407 247.77339,593.75051 C 244.74518,584.97128 233.98032,582.49644 229.32301,589.50877 C 226.54829,593.68658 228.08177,600.14431 232.37941,602.3797 C 234.27059,603.36339 238.83808,603.34958 241.04756,602.35348 C 242.00492,601.92187 242.12859,602.2577 242.12859,605.2892 C 242.12859,608.57003 242.04775,608.74062 240.18322,609.3944 C 235.74474,610.95071 229.06087,609.44403 226.42485,606.29298 C 225.59274,605.29828 224.79387,604.48445 224.64959,604.48445 C 224.5053,604.48445 223.41481,605.40694 222.22627,606.53443 C 218.78348,609.80039 213.68645,610.86304 208.68843,609.35683 L 206.30028,608.63714 L 206.30028,605.25163 C 206.30028,602.24073 206.4199,601.92446 207.38131,602.39332 C 207.97587,602.68329 210.18183,602.9229 212.28343,602.92581 C 215.67931,602.9305 216.31669,602.72653 218.01121,601.09287 C 221.80457,597.43572 221.8019,591.24558 218.00542,587.6784 C 212.2855,582.30394 202.89571,586.7501 200.7225,595.86204 C 198.48635,605.23783 202.22679,615.4691 209.80891,620.71625 C 212.88019,622.84171 218.72883,625.14037 219.38803,624.48108 C 219.6214,624.24769 219.89938,622.80749 220.00576,621.28063 z M 170.82643,594.57933 C 177.42617,592.24614 183.29779,586.657 184.7165,581.35749 C 185.86997,577.04879 184.97015,573.54591 181.92238,570.48031 C 179.56652,568.11067 178.97187,567.82524 176.39101,567.82524 C 171.42454,567.82524 167.7182,570.8602 166.96221,575.54609 C 166.44378,578.75945 168.66893,582.94647 171.69551,584.45267 L 174.09176,585.64517 L 171.55185,587.6087 C 170.15489,588.68864 168.63928,589.57223 168.18382,589.57223 C 167.72837,589.57223 166.12565,588.43175 164.62222,587.03783 C 161.23664,583.89886 159.65755,580.07417 160.17609,576.2689 L 160.54951,573.52856 L 157.49589,573.10613 C 152.81251,572.45823 148.19551,568.58821 146.38196,563.79031 C 145.79302,562.23222 145.94423,561.89236 148.06533,560.00696 C 149.34707,558.86765 150.56025,557.92385 150.76128,557.90962 C 150.96232,557.89539 151.44857,558.964 151.84184,560.28429 C 152.80457,563.51641 156.68406,566.27188 160.27188,566.27188 C 165.13918,566.27188 169.23651,562.12781 169.23651,557.205 C 169.23651,551.81006 164.67907,547.93773 158.34214,547.94835 C 146.90104,547.96751 136.98853,561.37814 139.02303,574.08515 C 139.7179,578.42514 141.07576,582.11611 141.9775,582.11611 C 142.30852,582.11611 143.42169,581.4032 144.4512,580.53185 C 146.2522,579.00754 146.39514,578.9851 148.22828,579.93859 C 149.27616,580.48364 150.60404,581.92207 151.17914,583.1351 L 152.22476,585.34062 L 149.92037,587.46479 C 148.65296,588.63307 147.61598,589.69584 147.61598,589.82648 C 147.61598,590.52329 154.35416,594.26324 156.80769,594.92823 C 161.13927,596.10225 166.92603,595.95823 170.82643,594.57933 z M 295.06622,593.65356 C 297.17171,592.69866 299.39553,591.35963 300.00806,590.67794 C 301.09121,589.47249 301.06669,589.39224 299.11413,587.75142 C 296.78792,585.79662 296.58929,584.18778 298.38987,581.88531 C 300.76483,578.84837 301.87897,578.66451 304.59638,580.86105 L 307.02243,582.82208 L 308.3962,579.82839 C 309.52606,577.36621 309.76996,575.73156 309.76996,570.62128 C 309.76996,565.0616 309.58645,564.03197 308.02584,560.83528 C 305.40519,555.46725 300.82879,550.75539 296.74191,549.21735 C 289.45585,546.47534 283.2268,548.19393 280.5144,553.69452 C 278.59168,557.59366 279.05728,560.23326 282.23083,563.42538 C 286.28154,567.49978 291.49883,567.37137 295.22244,563.10561 C 296.25868,561.9185 297.1065,560.25795 297.1065,559.41549 C 297.1065,557.42928 297.57828,557.48397 300.36327,559.79302 C 302.99477,561.97481 303.11858,562.63764 301.49096,565.83063 C 299.41927,569.89477 295.09217,572.79395 290.84372,572.96436 L 288.35798,573.06406 L 288.7505,575.69686 C 289.345,579.68448 288.01906,583.21174 284.644,586.62085 C 283.03695,588.24411 281.27559,589.57223 280.72987,589.57223 C 280.18414,589.57223 278.63681,588.6824 277.29136,587.59484 L 274.84507,585.61746 L 276.55542,584.87802 C 279.55921,583.57938 281.19405,581.2173 281.53111,577.68891 C 281.92172,573.59994 280.47518,570.67716 277.23897,569.01651 C 272.46124,566.56484 267.94225,567.88297 265.24317,572.51552 C 261.52984,578.88891 265.08235,587.54298 273.43251,592.46512 C 277.81116,595.0462 280.89284,595.79298 286.29624,595.58237 C 290.09571,595.43427 292.12299,594.98841 295.06622,593.65356 z "
         id="path2191" />
    </g>
  </g>
</svg>
