<?xml version="1.0" encoding="utf-8"?>
<!-- Generated by IcoMoon.io -->
<!DOCTYPE svg PUBLIC "-//W3C//DTD SVG 1.1//EN" "http://www.w3.org/Graphics/SVG/1.1/DTD/svg11.dtd">
<svg version="1.1" xmlns="http://www.w3.org/2000/svg" xmlns:xlink="http://www.w3.org/1999/xlink" width="1592" height="576" viewBox="0 0 1592 576"><g id="icomoon-ignore">
</g>
<path d="M428.542 166.463l-10.369 8.642 10.945 35.712-32.833-17.859-10.945 8.642 36.287 19.581-38.59 31.106-10.369-13.823 13.828-10.945-10.369-12.096-13.823 10.945-10.369-13.247 13.823-10.945-10.369-13.247-70.848 58.752 67.394 54.141 12.096-14.974c8.642 0.576 14.974 6.914 18.434 14.974l-12.096 14.98 7.485 5.757c16.702-14.974 38.596-24.767 61.055-24.767 47.232 0 84.095 38.59 84.095 85.822 0 15.55-4.030 32.257-12.671 46.081l12.671 9.793c-0.576 9.217-9.217 19.010-17.859 21.313l-12.096-9.793c-16.702 16.131-38.59 24.767-61.631 24.767-47.232 0-84.095-37.439-84.095-85.241 0-15.55 4.611-31.682 11.52-44.929l-6.909-6.333-12.096 16.126c-8.642-1.151-16.131-6.914-18.434-16.126l12.096-14.399-57.025-47.232v74.878l19.010 0.576c2.303 2.879 4.035 6.909 4.035 11.52 0 4.030-1.727 8.642-3.46 12.096h-19.586v9.217c41.475 6.914 76.035 42.045 76.035 84.671 0 44.353-33.985 79.489-76.035 86.398v14.98c-4.030 2.303-9.217 4.030-13.823 4.030-5.187 0-10.945-1.727-15.556-4.030v-14.98c-42.045-6.909-74.878-42.045-74.878-86.398 0-42.626 32.833-77.757 74.878-84.095v-9.793h-19.581c-2.303-3.454-3.454-8.060-3.454-12.096 0-4.611 1.151-8.642 3.454-12.101h19.581v-74.883l-57.595 47.237 12.671 14.399c-2.879 9.212-10.369 14.974-19.010 16.126l-12.096-16.126-7.49 6.333c8.066 13.247 12.096 29.379 12.096 44.929 0 47.807-36.863 85.241-84.095 85.241-22.465 0-44.929-8.636-61.055-24.767l-12.671 9.793c-8.060-2.297-16.702-12.090-17.853-21.308l12.096-9.793c-7.485-13.823-12.096-30.53-12.096-46.081 0-47.226 36.863-85.822 84.095-85.822 23.040 0 44.929 9.793 61.631 24.767l6.914-5.182-12.096-15.55c2.879-8.060 10.369-13.823 19.010-14.974l12.096 14.974 67.394-54.141-70.853-58.758-10.369 13.247 13.823 10.945-10.369 13.247-13.823-10.945-10.369 12.096 13.247 10.945-10.369 13.823-38.015-31.106 35.712-19.581-10.369-8.642-32.828 17.859 10.945-35.712-10.369-8.642-12.096 39.166-38.596-31.101 10.369-12.671 13.247 10.945 10.945-12.671-13.823-12.096 10.369-12.096 13.823 10.369 9.793-12.096-29.954-23.616c2.879-9.793 9.217-17.859 18.429-23.616l159.56 130.17v-86.974h-16.126v16.707h-16.126v-16.707h-16.712v16.707h-16.702v-48.959l38.015 16.126v-13.823l-35.136-14.399 35.136-13.823v-13.247l-38.015 14.974v-49.535h16.702v17.859h16.707v-17.864h16.126v17.859h16.126v-39.171c4.611-1.727 9.798-2.879 14.98-2.879 4.611 0 9.793 1.151 14.399 2.879v214.271l159.554-130.175c8.642 5.757 14.974 13.823 18.429 23.616l-30.53 23.616 10.369 12.096 13.823-10.369 10.369 12.096-13.823 12.096 10.369 12.671 13.823-10.945 10.369 12.671-38.59 31.101-12.096-39.161zM102.524 402.047c0 13.828 10.369 22.47 22.465 23.622l-20.162 15.55c-13.823-5.187-26.495-21.889-26.495-36.293 0-4.606 1.151-7.485 2.303-10.945-1.727 0-2.879 0.576-4.030 0.576-18.434 0-33.985-17.283-37.439-35.142l20.737-16.126c-0.576 2.303-0.576 4.030-0.576 5.763 0 11.52 10.945 21.883 22.465 21.883 12.096 0 23.616-10.363 23.616-22.465 0-14.974-11.52-24.762-25.919-24.762-28.222 0-55.873 27.070-55.873 62.782 0 10.369 2.303 20.162 6.914 28.803l12.671-9.793c8.642 4.030 15.55 12.671 17.859 22.465l-12.671 9.793c12.096 10.369 27.070 14.98 42.626 14.98 32.252 0 58.176-25.924 58.176-48.964 0-13.242-9.217-24.767-23.040-24.767-12.677 0-23.627 9.793-23.627 23.040zM273.598 451.587c0 12.671 10.369 23.035 22.465 23.035 8.642 0 12.096-3.454 18.429-8.642v25.919c-6.338 3.46-12.671 5.182-19.581 5.182-13.823 0-25.343-4.030-32.833-16.126-8.060 12.096-19.581 16.126-33.409 16.126-6.338 0-13.247-1.722-19.581-5.182v-25.919c5.763 5.763 10.369 8.642 18.434 8.642 12.671 0 22.465-10.363 22.465-23.035 0-12.101-8.060-23.040-21.313-23.040-23.616 0-33.404 22.465-33.404 43.196 0 30.53 22.465 56.449 51.838 61.636v-15.55c4.611-2.308 9.793-2.879 14.399-2.879 5.187 0 10.369 0.57 14.974 2.879v15.55c27.070-4.030 51.838-32.833 51.838-61.636 0-21.313-8.642-43.196-33.409-43.196-12.671-0.006-21.313 10.939-21.313 23.040zM417.021 348.477c0 11.52 12.096 22.465 24.191 22.465 11.52 0 22.465-10.363 22.465-21.883 0-1.727-0.576-3.46-0.576-5.763l20.156 16.126c-3.454 19.586-20.732 36.863-40.893 34.561 1.151 3.46 1.727 6.338 1.727 10.945 0 14.399-12.671 31.106-26.495 36.293l-20.162-15.55c12.671-1.151 23.040-9.793 23.040-23.622 0-13.247-11.52-23.035-24.191-23.035-13.247 0-23.040 11.52-23.040 25.343 0 16.702 20.156 48.383 58.752 48.383 15.55 0 30.53-4.611 42.045-14.98l-12.671-9.793c2.879-9.793 8.642-18.434 17.859-22.465l12.671 9.793c4.611-8.642 7.49-18.434 7.49-28.803 0-27.646-21.313-62.782-55.298-62.782-14.399 0.006-27.070 9.793-27.070 24.767z" fill="rgb(0, 0, 0)"></path>
<path d="M930.147 346.863c0 119.345-65.243 133.662-130.48 133.662-112.181 0-136.052-57.286-136.052-139.235v-231.124h-41.371v-22.28h156.736v22.28h-44.554v224.368c0 79.163 20.688 118.547 77.572 118.547 58.079 0 86.327-28.64 86.327-110.992v-231.923h-41.768v-22.28h111.388v22.28h-37.792v236.697zM1036.761 453.874v-343.708h-40.578v-22.28h173.845c73.993 0 110.59 41.768 110.59 90.7 0 52.115-47.341 81.554-89.505 90.303 81.95 7.561 104.224 60.072 104.224 98.657 0 78.767-67.231 108.602-133.266 108.602h-168.674v-22.28h43.365zM1209.807 182.969c0-36.201-18.695-72.798-59.67-72.798h-44.158v149.18h39.383c43.359-0.006 64.444-36.602 64.444-76.382zM1223.733 367.552c0-51.713-22.28-86.327-74.389-86.327h-43.359v172.65h35.005c55.292 0 82.743-32.616 82.743-86.322zM1468.784 104.995c-40.975 0-67.231 24.268-67.231 66.437 0 38.189 41.371 56.487 81.553 70.017 23.871 8.354 54.103 19.493 74.791 39.383 22.676 21.481 35.006 50.122 34.213 86.327-1.591 67.627-48.932 113.376-132.473 113.772-31.426 0-80.358-7.158-109.797-24.268l-3.183-101.839h24.664c1.988 68.425 34.213 104.224 90.7 104.224 45.353 0 70.413-30.232 70.413-76.377 0-39.78-33.018-56.889-83.145-73.596-16.311-5.567-48.535-17.506-71.206-39.78-20.287-20.287-29.835-45.749-29.835-72.798 0-79.163 56.487-113.376 126.504-113.376 27.847 0 69.615 9.945 93.882 23.866l2.384 88.315h-24.664c-5.17-62.858-32.621-90.309-77.572-90.309z" fill="rgb(230, 0, 0)"></path>
</svg>
